<svg version="1.1" id="Layer_1" xmlns="http://www.w3.org/2000/svg" xmlns:xlink="http://www.w3.org/1999/xlink" x="0px" y="0px"
	 width="100%" viewBox="0 0 500 500" enable-background="new 0 0 500 500" xml:space="preserve">
<path fill="transparent" opacity="1.000000" stroke="none" 
	d="
M323.000000,501.000000 
	C215.333359,501.000000 108.166718,501.000000 1.000057,501.000000 
	C1.000038,334.333405 1.000038,167.666794 1.000019,1.000147 
	C167.666565,1.000098 334.333130,1.000098 500.999756,1.000049 
	C500.999847,167.666519 500.999847,334.333038 500.999939,500.999786 
	C441.833344,501.000000 382.666656,501.000000 323.000000,501.000000 
M144.092606,307.533264 
	C134.327042,292.428925 129.370010,275.658875 128.066162,257.930328 
	C126.593193,237.902145 129.687027,218.507919 138.091202,200.053177 
	C144.011246,187.053299 151.901459,175.310593 162.168823,165.615250 
	C173.249619,155.151794 186.118622,146.931625 200.268402,140.896774 
	C205.056198,138.854767 206.035049,139.092300 206.900528,144.078461 
	C211.290314,169.368500 225.223419,186.539581 250.439377,192.677734 
	C262.509644,195.615921 272.614105,200.948944 281.732971,209.049194 
	C288.497284,215.057877 296.615997,218.802155 305.734863,218.655487 
	C309.062988,218.601974 313.762878,216.745895 315.310150,214.185303 
	C317.445282,210.651840 314.503723,207.387329 310.800385,205.049118 
	C304.058289,200.792389 297.678406,195.962082 291.147369,191.371094 
	C291.296814,190.939774 291.446289,190.508453 291.595734,190.077133 
	C292.934509,190.173355 294.354889,190.011703 295.599396,190.405670 
	C308.078522,194.356216 317.756714,202.271378 323.449585,213.752472 
	C327.719604,222.363968 329.895782,232.037674 332.754913,241.315292 
	C334.333893,246.438965 336.972198,249.167282 340.657593,248.569778 
	C344.194397,247.996399 346.535919,244.006012 345.177429,239.052719 
	C341.727905,226.474899 338.967865,213.523376 333.813507,201.640305 
	C325.774658,183.107330 313.196655,167.601456 297.402679,154.705521 
	C282.993591,142.940369 267.384979,133.608597 249.206421,129.242996 
	C243.714218,127.924042 241.710602,125.022476 241.975494,119.799500 
	C242.051285,118.305176 241.998474,116.797379 241.900635,115.302567 
	C241.657166,111.582222 240.073090,109.254875 235.907730,109.979424 
	C225.651138,111.763580 215.187088,112.816406 205.200607,115.585060 
	C189.903168,119.826111 175.182724,125.916451 162.966232,136.453690 
	C153.730392,144.419998 144.232254,152.328506 136.332458,161.534164 
	C126.773178,172.673615 118.810074,185.252838 114.753609,199.636826 
	C111.399452,211.530472 107.719551,223.511871 106.251160,235.703369 
	C104.976257,246.288452 106.066635,257.272308 107.071388,267.989960 
	C108.407692,282.244354 112.437042,295.971039 118.849854,308.771179 
	C132.466537,335.950378 152.224243,357.321777 179.520279,371.349457 
	C193.669922,378.621094 208.707458,383.235565 224.133926,386.760956 
	C227.735031,387.583923 230.020905,386.668060 229.915695,382.405609 
	C229.821152,378.575470 230.508621,374.612427 229.712891,370.955688 
	C229.232681,368.748901 226.919250,365.872162 224.847946,365.257996 
	C213.430222,361.872650 202.044724,358.760864 191.389679,353.040527 
	C171.510269,342.368011 155.494690,327.914795 144.092606,307.533264 
M303.308868,114.018692 
	C297.096313,112.767418 290.871155,111.574883 284.675903,110.243172 
	C280.874908,109.426109 278.847717,110.729752 279.100311,114.065331 
	C279.410187,118.157433 280.032379,122.257828 279.932892,126.340340 
	C279.825378,130.752213 282.041321,132.246674 285.917450,133.037079 
	C292.768280,134.434067 299.712341,135.700562 306.316803,137.917297 
	C325.977997,144.516434 342.532135,155.799194 356.169983,171.553818 
	C363.962097,180.555420 370.280579,190.397095 375.057312,201.191132 
	C383.596100,220.486313 386.761688,240.595535 384.105743,261.694092 
	C381.904633,279.179474 376.174286,295.301117 367.094757,310.265991 
	C358.875427,323.813049 348.081726,335.174377 335.122772,344.136200 
	C327.119720,349.670746 318.136322,353.787720 309.146667,358.789459 
	C308.475586,356.666351 308.143707,355.931488 308.015289,355.162628 
	C306.229370,344.472382 302.958282,334.398834 295.979675,325.841370 
	C288.043365,316.109528 278.649963,308.427582 265.970428,306.076202 
	C253.140045,303.696838 241.985657,298.309387 232.163071,289.705780 
	C224.175201,282.709229 214.841339,278.815186 203.940613,280.058258 
	C200.583282,280.441071 197.652832,282.076447 197.782745,285.814087 
	C197.857300,287.958832 198.960739,290.635315 200.527008,292.039520 
	C203.548859,294.748657 207.242386,296.703217 210.629761,299.011230 
	C215.255127,302.162750 219.854675,305.352112 225.239090,309.057800 
	C223.405746,309.676208 222.908661,310.041656 222.545319,309.938049 
	C204.604965,304.821960 191.493286,294.194672 185.093185,276.325592 
	C182.687576,269.609131 180.977341,262.639740 179.043839,255.759354 
	C177.779785,251.261185 174.389832,250.523087 170.563751,251.052521 
	C166.742706,251.581223 166.908325,254.744156 166.973740,257.611298 
	C167.003891,258.932098 166.978439,260.308075 167.332504,261.558746 
	C169.499573,269.213531 171.340851,276.997284 174.089157,284.443390 
	C180.438690,301.646271 189.537216,317.256683 202.135834,330.757141 
	C218.203201,347.974609 237.968124,359.194366 259.909454,366.999634 
	C262.816132,368.033691 265.891357,368.799072 268.542358,370.300262 
	C272.911865,372.774506 272.647186,377.513245 272.855957,381.664032 
	C273.054779,385.616974 275.023499,387.455078 278.578705,387.665283 
	C280.825439,387.798126 283.131348,387.314087 285.382080,386.936157 
	C309.193634,382.937897 330.930176,374.571289 350.321838,359.517487 
	C370.763397,343.648682 385.466583,323.788452 394.710907,300.079620 
	C403.386383,277.829590 407.189056,254.622528 404.122650,230.512924 
	C402.129822,214.844269 398.214050,199.823853 391.252350,185.711441 
	C383.246429,169.482178 373.295837,154.538376 358.718048,143.388748 
	C350.438843,137.056519 342.039703,130.638641 332.900238,125.742050 
	C323.834015,120.884727 313.771118,117.887703 303.308868,114.018692 
M196.926727,247.880020 
	C194.694168,243.347107 190.528137,243.276657 186.698868,244.320557 
	C182.910004,245.353439 183.513489,249.303604 184.170471,251.969208 
	C186.190781,260.166504 188.750046,268.231476 191.121155,276.341644 
	C192.302231,280.381439 195.411148,280.743866 198.592361,279.584503 
	C201.948349,278.361450 204.984879,276.143707 203.844330,271.895996 
	C201.753876,264.110596 199.305740,256.421234 196.926727,247.880020 
M321.541992,222.021591 
	C319.271027,217.021561 315.788696,216.220184 313.062531,220.608795 
	C311.276978,223.483185 309.729095,227.476410 310.245209,230.611191 
	C311.387421,237.548950 313.903015,244.260101 315.850159,251.066040 
	C317.092163,255.407257 320.587646,255.309906 323.917938,254.843460 
	C327.317169,254.367340 328.749512,251.852737 328.035522,248.647797 
	C326.105774,239.985260 323.929871,231.377563 321.541992,222.021591 
M253.148544,294.619080 
	C249.090652,287.011566 245.111923,279.360077 240.925018,271.824219 
	C239.720276,269.655884 238.274551,267.223145 236.273026,266.020569 
	C234.642685,265.040985 230.510895,264.969604 230.103195,265.791901 
	C228.598083,268.827637 226.678009,272.907990 227.614746,275.684357 
	C231.369080,286.811707 239.910141,293.880981 250.357498,298.615875 
	C253.439941,300.012909 254.640427,298.296661 253.148544,294.619080 
M285.658875,224.751801 
	C283.090942,212.073196 273.328003,205.763153 263.350555,199.693420 
	C262.726776,199.313950 260.971130,199.519958 260.800110,199.913452 
	C260.311554,201.037521 259.833252,202.653412 260.295807,203.626953 
	C264.199158,211.842682 268.031250,220.119705 272.541901,228.002274 
	C273.845825,230.280914 277.248566,232.598740 279.746948,232.663376 
	C283.506958,232.760666 285.811584,229.671799 285.658875,224.751801 
M223.124985,271.403656 
	C221.600845,266.617981 220.184647,261.794342 218.520111,257.058014 
	C217.058060,252.897781 213.788589,250.935577 209.653976,252.180038 
	C207.544388,252.815002 204.781723,254.930923 204.353271,256.836029 
	C202.897751,263.307892 205.244141,269.438904 209.697678,273.895874 
	C213.557495,277.758667 218.590454,280.830750 225.211487,279.552643 
	C224.627380,276.789337 224.126907,274.421692 223.124985,271.403656 
M290.934723,230.517136 
	C291.894775,233.669678 292.948029,236.797485 293.793030,239.980576 
	C295.053101,244.727036 298.321472,247.290161 302.628723,246.786591 
	C307.619049,246.203125 307.976501,242.524841 307.913849,238.731735 
	C307.875977,236.436523 307.720795,234.059814 307.088654,231.872833 
	C304.820984,224.027451 295.094299,217.950180 287.504425,220.036606 
	C288.586243,223.290222 289.659393,226.517822 290.934723,230.517136 
z"/>
<path fill="#253841" opacity="1.000000" stroke="none" 
	d="
M144.207443,307.882874 
	C155.494690,327.914795 171.510269,342.368011 191.389679,353.040527 
	C202.044724,358.760864 213.430222,361.872650 224.847946,365.257996 
	C226.919250,365.872162 229.232681,368.748901 229.712891,370.955688 
	C230.508621,374.612427 229.821152,378.575470 229.915695,382.405609 
	C230.020905,386.668060 227.735031,387.583923 224.133926,386.760956 
	C208.707458,383.235565 193.669922,378.621094 179.520279,371.349457 
	C152.224243,357.321777 132.466537,335.950378 118.849854,308.771179 
	C112.437042,295.971039 108.407692,282.244354 107.071388,267.989960 
	C106.066635,257.272308 104.976257,246.288452 106.251160,235.703369 
	C107.719551,223.511871 111.399452,211.530472 114.753609,199.636826 
	C118.810074,185.252838 126.773178,172.673615 136.332458,161.534164 
	C144.232254,152.328506 153.730392,144.419998 162.966232,136.453690 
	C175.182724,125.916451 189.903168,119.826111 205.200607,115.585060 
	C215.187088,112.816406 225.651138,111.763580 235.907730,109.979424 
	C240.073090,109.254875 241.657166,111.582222 241.900635,115.302567 
	C241.998474,116.797379 242.051285,118.305176 241.975494,119.799500 
	C241.710602,125.022476 243.714218,127.924042 249.206421,129.242996 
	C267.384979,133.608597 282.993591,142.940369 297.402679,154.705521 
	C313.196655,167.601456 325.774658,183.107330 333.813507,201.640305 
	C338.967865,213.523376 341.727905,226.474899 345.177429,239.052719 
	C346.535919,244.006012 344.194397,247.996399 340.657593,248.569778 
	C336.972198,249.167282 334.333893,246.438965 332.754913,241.315292 
	C329.895782,232.037674 327.719604,222.363968 323.449585,213.752472 
	C317.756714,202.271378 308.078522,194.356216 295.599396,190.405670 
	C294.354889,190.011703 292.934509,190.173355 291.595734,190.077133 
	C291.446289,190.508453 291.296814,190.939774 291.147369,191.371094 
	C297.678406,195.962082 304.058289,200.792389 310.800385,205.049118 
	C314.503723,207.387329 317.445282,210.651840 315.310150,214.185303 
	C313.762878,216.745895 309.062988,218.601974 305.734863,218.655487 
	C296.615997,218.802155 288.497284,215.057877 281.732971,209.049194 
	C272.614105,200.948944 262.509644,195.615921 250.439377,192.677734 
	C225.223419,186.539581 211.290314,169.368500 206.900528,144.078461 
	C206.035049,139.092300 205.056198,138.854767 200.268402,140.896774 
	C186.118622,146.931625 173.249619,155.151794 162.168823,165.615250 
	C151.901459,175.310593 144.011246,187.053299 138.091202,200.053177 
	C129.687027,218.507919 126.593193,237.902145 128.066162,257.930328 
	C129.370010,275.658875 134.327042,292.428925 144.207443,307.882874 
z"/>
<path fill="#1342ad" opacity="1.000000" stroke="none" 
	d="
M303.727112,114.046753 
	C313.771118,117.887703 323.834015,120.884727 332.900238,125.742050 
	C342.039703,130.638641 350.438843,137.056519 358.718048,143.388748 
	C373.295837,154.538376 383.246429,169.482178 391.252350,185.711441 
	C398.214050,199.823853 402.129822,214.844269 404.122650,230.512924 
	C407.189056,254.622528 403.386383,277.829590 394.710907,300.079620 
	C385.466583,323.788452 370.763397,343.648682 350.321838,359.517487 
	C330.930176,374.571289 309.193634,382.937897 285.382080,386.936157 
	C283.131348,387.314087 280.825439,387.798126 278.578705,387.665283 
	C275.023499,387.455078 273.054779,385.616974 272.855957,381.664032 
	C272.647186,377.513245 272.911865,372.774506 268.542358,370.300262 
	C265.891357,368.799072 262.816132,368.033691 259.909454,366.999634 
	C237.968124,359.194366 218.203201,347.974609 202.135834,330.757141 
	C189.537216,317.256683 180.438690,301.646271 174.089157,284.443390 
	C171.340851,276.997284 169.499573,269.213531 167.332504,261.558746 
	C166.978439,260.308075 167.003891,258.932098 166.973740,257.611298 
	C166.908325,254.744156 166.742706,251.581223 170.563751,251.052521 
	C174.389832,250.523087 177.779785,251.261185 179.043839,255.759354 
	C180.977341,262.639740 182.687576,269.609131 185.093185,276.325592 
	C191.493286,294.194672 204.604965,304.821960 222.545319,309.938049 
	C222.908661,310.041656 223.405746,309.676208 225.239090,309.057800 
	C219.854675,305.352112 215.255127,302.162750 210.629761,299.011230 
	C207.242386,296.703217 203.548859,294.748657 200.527008,292.039520 
	C198.960739,290.635315 197.857300,287.958832 197.782745,285.814087 
	C197.652832,282.076447 200.583282,280.441071 203.940613,280.058258 
	C214.841339,278.815186 224.175201,282.709229 232.163071,289.705780 
	C241.985657,298.309387 253.140045,303.696838 265.970428,306.076202 
	C278.649963,308.427582 288.043365,316.109528 295.979675,325.841370 
	C302.958282,334.398834 306.229370,344.472382 308.015289,355.162628 
	C308.143707,355.931488 308.475586,356.666351 309.146667,358.789459 
	C318.136322,353.787720 327.119720,349.670746 335.122772,344.136200 
	C348.081726,335.174377 358.875427,323.813049 367.094757,310.265991 
	C376.174286,295.301117 381.904633,279.179474 384.105743,261.694092 
	C386.761688,240.595535 383.596100,220.486313 375.057312,201.191132 
	C370.280579,190.397095 363.962097,180.555420 356.169983,171.553818 
	C342.532135,155.799194 325.977997,144.516434 306.316803,137.917297 
	C299.712341,135.700562 292.768280,134.434067 285.917450,133.037079 
	C282.041321,132.246674 279.825378,130.752213 279.932892,126.340340 
	C280.032379,122.257828 279.410187,118.157433 279.100311,114.065331 
	C278.847717,110.729752 280.874908,109.426109 284.675903,110.243172 
	C290.871155,111.574883 297.096313,112.767418 303.727112,114.046753 
z"/>
<path fill="#1342ad" opacity="1.000000" stroke="none" 
	d="
M196.966736,248.285919 
	C199.305740,256.421234 201.753876,264.110596 203.844330,271.895996 
	C204.984879,276.143707 201.948349,278.361450 198.592361,279.584503 
	C195.411148,280.743866 192.302231,280.381439 191.121155,276.341644 
	C188.750046,268.231476 186.190781,260.166504 184.170471,251.969208 
	C183.513489,249.303604 182.910004,245.353439 186.698868,244.320557 
	C190.528137,243.276657 194.694168,243.347107 196.966736,248.285919 
z"/>
<path fill="#273A41" opacity="1.000000" stroke="none" 
	d="
M321.696777,222.384857 
	C323.929871,231.377563 326.105774,239.985260 328.035522,248.647797 
	C328.749512,251.852737 327.317169,254.367340 323.917938,254.843460 
	C320.587646,255.309906 317.092163,255.407257 315.850159,251.066040 
	C313.903015,244.260101 311.387421,237.548950 310.245209,230.611191 
	C309.729095,227.476410 311.276978,223.483185 313.062531,220.608795 
	C315.788696,216.220184 319.271027,217.021561 321.696777,222.384857 
z"/>
<path fill="#1342ad" opacity="1.000000" stroke="none" 
	d="
M253.443344,294.883942 
	C254.640427,298.296661 253.439941,300.012909 250.357498,298.615875 
	C239.910141,293.880981 231.369080,286.811707 227.614746,275.684357 
	C226.678009,272.907990 228.598083,268.827637 230.103195,265.791901 
	C230.510895,264.969604 234.642685,265.040985 236.273026,266.020569 
	C238.274551,267.223145 239.720276,269.655884 240.925018,271.824219 
	C245.111923,279.360077 249.090652,287.011566 253.443344,294.883942 
z"/>
<path fill="#283A42" opacity="1.000000" stroke="none" 
	d="
M285.705811,225.138336 
	C285.811584,229.671799 283.506958,232.760666 279.746948,232.663376 
	C277.248566,232.598740 273.845825,230.280914 272.541901,228.002274 
	C268.031250,220.119705 264.199158,211.842682 260.295807,203.626953 
	C259.833252,202.653412 260.311554,201.037521 260.800110,199.913452 
	C260.971130,199.519958 262.726776,199.313950 263.350555,199.693420 
	C273.328003,205.763153 283.090942,212.073196 285.705811,225.138336 
z"/>
<path fill="#1342ad" opacity="1.000000" stroke="none" 
	d="
M223.375702,271.728851 
	C224.126907,274.421692 224.627380,276.789337 225.211487,279.552643 
	C218.590454,280.830750 213.557495,277.758667 209.697678,273.895874 
	C205.244141,269.438904 202.897751,263.307892 204.353271,256.836029 
	C204.781723,254.930923 207.544388,252.815002 209.653976,252.180038 
	C213.788589,250.935577 217.058060,252.897781 218.520111,257.058014 
	C220.184647,261.794342 221.600845,266.617981 223.375702,271.728851 
z"/>
<path fill="#263941" opacity="1.000000" stroke="none" 
	d="
M290.833649,230.131287 
	C289.659393,226.517822 288.586243,223.290222 287.504425,220.036606 
	C295.094299,217.950180 304.820984,224.027451 307.088654,231.872833 
	C307.720795,234.059814 307.875977,236.436523 307.913849,238.731735 
	C307.976501,242.524841 307.619049,246.203125 302.628723,246.786591 
	C298.321472,247.290161 295.053101,244.727036 293.793030,239.980576 
	C292.948029,236.797485 291.894775,233.669678 290.833649,230.131287 
z"/>
</svg>